<?xml version="1.0" standalone="no"?>
<!DOCTYPE svg PUBLIC "-//W3C//DTD SVG 20010904//EN"
 "http://www.w3.org/TR/2001/REC-SVG-20010904/DTD/svg10.dtd">
<svg version="1.0" xmlns="http://www.w3.org/2000/svg"
 width="500.000000pt" height="260.000000pt" viewBox="0 0 500.000000 260.000000"
 preserveAspectRatio="xMidYMid meet">
<metadata>
Created by potrace 1.16, written by Peter Selinger 2001-2019
</metadata>
<g transform="translate(0.000000,260.000000) scale(0.100000,-0.100000)"
fill="#000000" stroke="none">
<path d="M2010 1040 c14 -11 34 -23 45 -26 11 -4 22 -9 25 -13 13 -16 299
-151 321 -151 64 0 66 73 3 138 -18 18 -24 15 -24 -12 0 -55 -31 -55 -180 3
-211 81 -217 83 -190 61z"/>
<path d="M4597 1003 c9 -33 10 -113 1 -201 -7 -71 -12 -76 -118 -146 -113 -75
-265 -144 -420 -191 -47 -14 -100 -30 -117 -36 -39 -12 -53 -6 -53 26 0 13 -6
27 -12 31 -7 4 -10 4 -6 -1 15 -16 -104 -56 -162 -56 -61 1 -98 -13 -67 -25
10 -3 41 -3 70 0 128 17 132 17 117 7 -12 -8 -6 -11 23 -11 20 0 37 -4 37 -10
0 -5 -7 -7 -15 -4 -8 4 -15 1 -15 -6 0 -7 -7 -10 -17 -6 -9 4 -20 1 -25 -6 -5
-9 -8 -5 -8 11 0 17 -4 22 -16 17 -9 -3 -23 -6 -32 -6 -14 0 -15 -2 -2 -10 13
-8 13 -10 0 -14 -36 -12 -109 -23 -105 -16 3 4 -6 7 -20 6 -18 -1 -23 -5 -19
-16 3 -8 8 -24 11 -35 4 -16 3 -17 -6 -5 -9 14 -34 21 -68 20 -50 -1 -71 -4
-67 -12 3 -4 1 -8 -4 -8 -6 0 -12 7 -16 15 -6 16 -36 21 -36 6 0 -6 -35 -9
-77 -8 -43 1 -106 -5 -141 -13 -46 -10 -65 -11 -70 -3 -5 8 -27 9 -69 4 -34
-4 -70 -6 -78 -5 -10 2 -15 -3 -11 -11 3 -8 -5 -15 -20 -18 -27 -5 -34 9 -6
15 9 3 -50 5 -133 6 -82 0 -228 4 -322 8 -157 6 -173 5 -173 -9 0 -21 -62 -48
-110 -48 -157 -2 -388 9 -407 20 -48 25 -21 31 144 31 91 0 164 2 161 6 -12
11 -408 3 -533 -11 -167 -19 -744 -28 -862 -14 -49 6 -104 13 -123 14 -19 2
-35 4 -35 5 0 1 -9 3 -20 5 -52 10 -137 72 -171 126 -13 22 -28 39 -33 39 -11
0 -2 -91 11 -107 5 -7 7 -16 4 -22 -10 -16 4 -39 34 -51 17 -7 33 -24 38 -40
10 -27 9 -28 -24 -35 -35 -6 -44 -19 -20 -28 8 -3 52 -12 98 -19 97 -15 814
-15 1198 0 138 5 342 5 495 0 404 -13 1939 -14 2151 0 194 12 292 28 276 44
-9 9 -224 27 -572 49 -96 6 -177 13 -179 15 -3 3 5 7 17 11 12 3 25 16 28 29
3 13 10 21 15 18 5 -3 23 2 41 10 18 8 40 14 48 15 36 0 100 14 100 21 0 4 14
13 30 20 17 7 29 15 26 17 -3 3 58 36 135 75 86 43 137 74 132 80 -4 7 0 9 10
5 10 -3 17 -2 17 4 0 5 19 18 43 28 23 10 66 38 95 62 87 72 99 155 46 322 -9
27 -22 47 -30 47 -11 0 -13 -7 -7 -27z"/>
</g>
</svg>
