<?xml version="1.0" standalone="no"?>
<!DOCTYPE svg PUBLIC "-//W3C//DTD SVG 20010904//EN"
 "http://www.w3.org/TR/2001/REC-SVG-20010904/DTD/svg10.dtd">
<svg version="1.0" xmlns="http://www.w3.org/2000/svg"
 width="500.000000pt" height="260.000000pt" viewBox="0 0 500.000000 260.000000"
 preserveAspectRatio="xMidYMid meet">
<metadata>
Created by potrace 1.16, written by Peter Selinger 2001-2019
</metadata>
<g transform="translate(0.000000,260.000000) scale(0.100000,-0.100000)"
fill="#000000" stroke="none">
<path d="M2310 2461 c-36 -3 -71 -10 -78 -14 -7 -5 -28 -32 -47 -60 -31 -46
-39 -52 -72 -53 -77 -3 -129 -17 -163 -44 -19 -15 -52 -33 -73 -41 -49 -17
-107 -65 -107 -88 0 -27 -32 -51 -91 -66 -55 -15 -79 -35 -216 -176 -29 -30
-71 -72 -94 -94 -148 -146 -190 -192 -195 -212 -4 -13 -12 -23 -20 -23 -19 0
-84 -59 -94 -86 -6 -14 -27 -28 -57 -40 -26 -9 -55 -23 -63 -30 -16 -14 -293
-132 -400 -170 -36 -13 -75 -24 -88 -24 -29 0 -105 -78 -132 -136 -13 -27 -23
-82 -30 -158 -6 -65 -14 -125 -19 -135 -6 -9 -12 -36 -14 -59 -5 -37 -2 -45
25 -67 48 -41 97 -57 149 -50 36 5 48 3 60 -11 19 -23 71 -44 108 -44 16 0 32
-4 35 -8 3 -5 23 -9 44 -10 22 -1 50 -6 63 -11 l24 -9 -29 -11 c-16 -6 -49
-16 -75 -22 -68 -15 -178 -59 -197 -80 -40 -44 25 -66 238 -80 129 -9 251 -9
483 0 171 6 329 14 353 17 62 9 52 -12 -15 -31 -148 -41 -218 -78 -211 -112 2
-8 20 -21 41 -28 98 -33 170 -38 542 -36 609 4 1056 29 1167 65 24 8 70 16
103 19 33 4 80 14 105 22 69 26 259 72 320 79 30 3 125 11 210 16 265 18 613
63 780 101 59 14 93 36 86 56 -4 11 5 25 25 42 26 22 32 36 37 81 l5 55 -24
-29 -25 -28 -37 47 c-46 59 -53 97 -37 190 14 79 8 146 -15 182 -22 32 -116
64 -317 108 -43 9 -78 20 -78 24 0 14 155 81 185 81 17 0 49 -9 72 -20 23 -10
63 -22 88 -25 l45 -7 0 48 c-1 98 -27 350 -38 370 -6 11 -22 70 -36 130 -13
60 -39 147 -56 194 -17 47 -41 114 -52 150 -25 79 -84 161 -131 183 -44 21
-108 22 -178 1 -86 -26 -129 -52 -204 -125 l-70 -68 -69 24 c-38 13 -80 34
-95 47 -73 64 -101 94 -101 109 0 20 -105 95 -162 115 -47 16 -104 18 -113 4
-4 -6 8 -10 28 -10 49 0 54 -13 10 -26 -35 -11 -36 -12 -10 -13 56 -2 15 -21
-46 -21 -34 0 -89 -7 -122 -14 -68 -16 -80 -13 -46 13 16 12 38 17 65 16 41
-3 41 -3 6 5 -19 4 -28 8 -20 9 8 1 29 8 45 16 l30 14 -30 -6 c-83 -16 -134
-44 -168 -91 -27 -38 -40 -48 -66 -50 -18 -1 -42 -7 -52 -13 -14 -7 -27 -4
-56 15 -21 14 -57 32 -80 40 -23 8 -50 23 -61 33 -11 10 -31 27 -45 39 -14 11
-27 32 -29 45 -2 19 -15 28 -63 46 -62 23 -130 26 -265 14z m2065 -711 c14
-22 -220 -248 -340 -328 -38 -26 -95 -67 -124 -91 -62 -50 -220 -146 -303
-184 -93 -43 -153 -40 -207 8 -52 47 -68 103 -53 191 17 104 99 264 135 264
14 0 17 -10 17 -61 0 -108 50 -169 136 -169 124 0 387 136 629 324 69 53 98
66 110 46z m-767 -899 c52 -15 112 -68 112 -99 0 -36 -3 -39 -96 -109 -92 -70
-162 -143 -219 -230 -27 -40 -47 -60 -60 -60 -11 0 -55 -10 -98 -22 -62 -17
-82 -19 -93 -10 -12 9 -17 9 -27 -3 -21 -27 -176 -40 -430 -36 -235 3 -236 3
-242 25 -7 29 -21 30 -28 2 -4 -14 -11 -19 -24 -16 -10 3 -54 11 -98 17 -215
30 -498 82 -560 104 -216 74 -390 175 -357 208 14 14 155 -2 352 -39 134 -25
138 -25 505 -19 396 6 482 12 627 46 200 47 317 89 533 190 132 62 148 66 203
51z m-2688 -47 c25 -8 66 -14 93 -14 47 0 47 0 41 -27 -4 -16 -13 -39 -20 -53
-7 -14 -17 -33 -20 -44 -10 -26 -45 -18 -202 47 -178 74 -214 99 -159 110 38
8 220 -5 267 -19z m3351 -148 c0 -12 3 -16 6 -7 4 10 7 10 13 1 6 -9 19 -10
59 -1 72 15 107 13 56 -4 -22 -8 -32 -14 -23 -14 20 -1 33 -17 15 -18 -7 -1
-79 -15 -162 -31 -176 -35 -245 -45 -224 -31 10 6 7 9 -13 9 -41 0 -43 17 -3
24 19 4 35 11 35 17 0 6 -4 8 -9 4 -15 -8 -23 13 -13 31 6 11 12 13 16 6 4 -6
13 -9 21 -6 9 4 18 -1 21 -11 5 -13 9 -14 15 -3 7 10 9 8 9 -6 0 -15 5 -17 28
-11 15 4 43 11 62 15 20 3 34 12 32 19 -1 6 2 20 8 31 13 25 50 15 51 -14z"/>
</g>
</svg>
