<?xml version="1.0" standalone="no"?>
<!DOCTYPE svg PUBLIC "-//W3C//DTD SVG 20010904//EN"
 "http://www.w3.org/TR/2001/REC-SVG-20010904/DTD/svg10.dtd">
<svg version="1.0" xmlns="http://www.w3.org/2000/svg"
 width="500.000000pt" height="249.000000pt" viewBox="0 0 500.000000 249.000000"
 preserveAspectRatio="xMidYMid meet">
<metadata>
Created by potrace 1.16, written by Peter Selinger 2001-2019
</metadata>
<g transform="translate(0.000000,249.000000) scale(0.100000,-0.100000)"
fill="#000000" stroke="none">
<path d="M1783 2266 c12 -16 8 -31 -5 -18 -15 15 -32 16 -23 2 6 -9 2 -12 -27
-14 -24 -2 -45 -30 -36 -48 11 -22 10 -28 -3 -28 -5 0 -7 4 -4 10 3 5 0 7 -9
4 -15 -6 -11 -34 6 -34 5 0 6 -4 3 -10 -3 -5 -11 -10 -16 -10 -6 0 -8 3 -6 8
3 4 -1 13 -9 19 -11 11 -13 8 -11 -14 1 -15 -4 -28 -12 -31 -9 -3 -11 0 -6 8
5 9 4 11 -4 6 -9 -6 -9 -11 0 -22 10 -12 8 -18 -7 -29 -25 -19 -12 -19 31 -1
19 8 35 11 35 5 0 -5 -7 -9 -16 -9 -8 0 -13 -4 -10 -9 3 -5 -2 -8 -12 -7 -9 0
-16 -4 -15 -10 1 -7 -6 -10 -16 -7 -15 4 -21 -2 -26 -26 -10 -45 2 -99 35
-163 17 -31 30 -60 30 -62 0 -3 -22 -18 -50 -34 -27 -16 -48 -31 -46 -33 5 -5
-8 -5 -149 -10 -197 -5 -291 48 -404 229 -19 29 -43 58 -54 64 -21 11 -21 11
-4 -16 l18 -27 -32 16 c-26 14 -33 15 -40 3 -6 -9 -9 -9 -9 -1 0 18 -89 54
-125 51 -21 -2 -30 2 -31 12 -3 32 -5 34 -14 20 -13 -20 -12 -26 6 -44 11 -12
13 -20 5 -33 -6 -10 -11 -12 -11 -5 0 6 -5 12 -11 12 -6 0 -9 -7 -6 -14 4 -10
1 -13 -8 -9 -8 3 -12 9 -9 14 3 5 -2 9 -11 9 -9 0 -14 -4 -10 -9 3 -5 2 -12
-3 -15 -4 -2 -8 4 -9 14 -1 12 6 20 18 22 11 2 20 6 20 10 0 4 4 21 9 38 5 17
5 28 1 25 -5 -2 -11 -18 -14 -35 -8 -37 -37 -41 -37 -5 0 19 4 23 18 19 13 -5
14 -4 3 4 -11 8 -10 12 5 21 11 6 14 11 8 11 -12 0 -64 -54 -88 -93 -9 -15
-21 -25 -25 -22 -5 3 -11 -14 -13 -38 -3 -23 -8 -51 -13 -61 -7 -15 -5 -17 6
-11 11 7 12 6 3 -6 -20 -27 -52 -219 -35 -219 16 0 19 -38 5 -57 -12 -16 -13
-16 -14 -1 0 9 5 19 10 21 6 3 5 4 -2 3 -7 -1 -13 -14 -14 -28 -1 -14 -4 -30
-8 -36 -5 -8 -1 -10 11 -5 17 6 17 5 0 -14 -10 -12 -17 -31 -15 -43 l3 -21 13
22 c11 17 11 20 0 13 -7 -4 -10 -3 -5 1 8 9 18 12 85 21 35 5 43 10 48 33 5
23 37 139 51 181 2 8 13 59 23 112 10 53 26 110 35 127 13 27 21 31 56 31 48
0 74 -24 143 -129 24 -36 63 -85 87 -108 46 -43 157 -104 224 -122 127 -34
304 14 462 125 34 24 66 44 71 44 6 0 41 39 78 88 144 187 175 205 281 163 53
-20 75 -18 66 6 -5 12 -2 15 10 10 9 -3 17 -3 17 1 0 11 -40 33 -50 27 -5 -3
-11 -1 -15 5 -4 7 -12 7 -25 0 -16 -8 -22 -6 -35 14 -9 13 -24 27 -33 31 -13
5 -13 2 3 -15 11 -12 13 -20 6 -20 -7 0 -9 -5 -5 -11 5 -8 9 -8 14 1 5 8 9 7
14 -5 3 -10 12 -15 21 -11 8 3 17 1 20 -4 4 -6 -3 -10 -14 -10 -11 0 -22 4
-26 9 -3 5 -27 8 -53 5 -51 -4 -135 -21 -114 -23 7 0 10 -5 7 -11 -9 -15 -25
-12 -25 5 0 10 -8 14 -22 11 -15 -2 -22 -9 -20 -20 2 -9 -2 -16 -8 -16 -6 0
-8 5 -5 10 3 6 1 10 -4 10 -6 0 -11 4 -11 8 0 12 71 33 84 25 6 -3 5 0 -1 8
-21 21 -15 29 17 23 20 -4 30 -2 30 5 0 7 -5 9 -10 6 -6 -4 -17 -1 -25 5 -8 6
-19 9 -25 5 -6 -4 -23 -8 -38 -11 -15 -2 -36 -6 -47 -8 -11 -3 -22 -5 -24 -5
-2 -1 2 -7 8 -15 7 -8 8 -17 3 -20 -6 -3 -12 3 -15 14 -8 30 -8 35 1 36 32 2
100 18 112 26 12 8 12 9 -2 4 -10 -3 -20 -1 -23 4 -4 6 5 10 20 10 23 0 24 2
15 20 -6 11 -15 18 -20 15 -5 -3 -11 -1 -15 5 -3 6 -19 17 -35 25 -26 14 -29
14 -24 0 9 -23 -3 -18 -34 13 -15 15 -24 23 -19 18z"/>
<path d="M1888 1566 c-15 -14 -87 -47 -160 -76 -73 -28 -146 -58 -163 -65 -16
-7 -61 -27 -99 -45 -38 -17 -75 -29 -82 -26 -8 3 -11 0 -7 -10 3 -7 6 -14 7
-14 2 0 39 16 83 35 45 19 87 35 95 35 8 0 40 -14 71 -31 31 -17 61 -28 67
-24 5 3 10 2 10 -3 0 -8 35 -23 49 -21 2 0 7 -5 11 -11 4 -7 19 -12 34 -12 14
0 26 -5 26 -10 0 -5 5 -6 10 -3 6 3 10 1 10 -4 0 -6 6 -11 13 -11 6 0 25 -7
40 -15 15 -8 25 -10 22 -5 -3 6 1 7 9 4 9 -3 14 -10 11 -14 -7 -11 22 -21 40
-14 8 4 15 2 15 -3 0 -5 6 -10 13 -10 20 0 107 -37 107 -45 0 -5 9 -8 20 -8
11 0 20 -5 20 -11 0 -6 7 -8 16 -5 8 3 13 2 10 -3 -3 -5 1 -11 9 -15 8 -3 15
-1 15 4 0 5 7 7 15 4 8 -4 12 -10 9 -15 -3 -5 1 -10 8 -11 7 0 18 -2 24 -2 6
-1 18 -7 27 -15 9 -7 21 -10 27 -6 13 8 52 -4 45 -14 -8 -14 145 -53 225 -58
105 -7 144 11 175 81 41 91 14 181 -96 329 -54 71 -87 89 -74 40 4 -16 9 -52
12 -81 6 -62 -10 -93 -59 -118 -41 -21 -158 -14 -268 16 -156 43 -259 71 -395
106 -77 19 -158 41 -180 49 -39 13 -40 13 -15 23 126 49 201 88 215 108 19 30
17 30 -17 0z"/>
<path d="M3843 1293 c-18 -7 -16 -27 5 -45 23 -20 229 -108 373 -159 95 -34
127 -41 189 -41 41 0 89 6 105 13 l30 12 -39 9 c-22 5 -103 33 -180 63 -78 29
-192 68 -253 85 -62 17 -127 37 -145 44 -48 20 -71 25 -85 19z"/>
<path d="M3620 1174 c-19 -11 -46 -13 -120 -8 -92 5 -100 4 -225 -36 -71 -23
-136 -47 -142 -52 -20 -16 -16 -109 5 -134 25 -30 59 -46 90 -43 15 2 32 0 38
-4 39 -24 416 -29 584 -8 114 14 259 45 291 61 22 12 24 29 6 53 -16 23 -448
188 -489 187 -7 -1 -24 -7 -38 -16z"/>
<path d="M3933 723 c-18 -9 -33 -21 -33 -25 0 -5 -5 -6 -11 -3 -6 4 -13 -2
-16 -14 -5 -21 -33 -30 -33 -10 0 5 5 7 12 3 6 -4 8 -3 5 2 -3 6 -36 7 -84 2
-43 -4 -99 -9 -125 -10 -27 -1 -48 -6 -48 -11 0 -6 -73 -8 -202 -5 -125 4
-170 3 -118 -2 47 -4 193 -11 325 -15 l240 -7 45 43 c25 24 54 49 65 56 29 17
16 14 -22 -4z"/>
<path d="M4365 510 c-71 -21 -138 -39 -147 -39 -10 -1 -18 -5 -18 -11 0 -5 -6
-7 -13 -4 -8 3 -34 0 -58 -6 -24 -6 -53 -13 -64 -15 -11 -2 -20 -4 -20 -4 0
-1 -27 -3 -60 -5 -33 -2 -107 -10 -165 -16 -125 -15 -480 -21 -524 -10 -52 14
-328 19 -347 7 -13 -8 -21 -6 -34 6 -9 9 -26 17 -38 17 -18 0 -19 -2 -7 -10
13 -9 13 -10 0 -10 -8 0 -37 6 -65 13 -27 7 -63 11 -78 9 -26 -3 -27 -5 -11
-16 16 -12 16 -14 -9 -31 -15 -9 -34 -15 -42 -11 -21 8 -20 56 2 56 37 0 2 11
-60 18 l-65 8 -7 -34 c-13 -70 -24 -82 -74 -82 -25 0 -54 7 -64 14 -21 17 -41
79 -32 105 5 16 -1 19 -40 23 -25 2 -45 2 -45 0 0 -2 10 -13 23 -23 l22 -20
-25 3 c-17 2 -26 10 -28 26 -4 26 -22 30 -22 5 0 -10 -5 -25 -11 -33 -8 -11
-9 -7 -5 18 4 21 1 32 -7 33 -6 0 -20 2 -31 4 -14 3 -16 1 -7 -8 17 -17 13
-48 -11 -68 -11 -11 -17 -19 -12 -19 6 0 15 5 22 12 9 9 12 9 12 0 0 -6 -8
-16 -17 -21 -16 -9 -16 -10 -2 -11 9 0 24 10 32 23 9 12 16 17 16 11 1 -17
-37 -53 -63 -60 -28 -7 -81 18 -96 45 -5 11 -10 40 -10 64 l0 45 -65 4 c-83 4
-85 3 -75 -32 6 -20 5 -29 -3 -27 -6 1 -11 -5 -12 -13 -1 -8 -7 -14 -14 -12
-7 1 -10 -2 -6 -8 5 -8 11 -7 22 1 17 14 106 13 111 -2 2 -5 10 -9 18 -9 8 0
14 -7 14 -15 0 -12 -4 -13 -19 -5 -26 13 -31 13 -31 -5 0 -10 -10 -15 -27 -15
-27 0 -23 -13 7 -23 8 -2 2 -3 -14 -1 -16 2 -58 4 -95 5 -46 0 -60 3 -46 9 11
5 31 9 45 9 33 2 46 11 55 41 l8 25 -20 -24 c-25 -30 -100 -38 -119 -13 -15
20 -47 3 -34 -18 8 -13 10 -12 10 3 0 9 5 17 10 17 17 0 11 -38 -7 -44 -17 -5
-213 -10 -243 -6 -8 1 -4 6 10 10 25 8 25 8 2 9 -13 1 -21 5 -18 9 2 4 -4 8
-14 8 -10 0 -16 -4 -14 -8 3 -4 -2 -8 -10 -8 -9 0 -16 -5 -16 -11 0 -13 -386
-4 -495 12 -184 26 -283 38 -320 38 -37 0 -38 -1 -15 -10 14 -6 39 -12 56 -13
17 -2 35 -5 40 -8 16 -9 77 -18 169 -23 50 -3 115 -8 145 -12 30 -4 138 -9
240 -13 102 -3 187 -8 190 -10 3 -2 -33 -7 -80 -10 -54 -4 -6 -6 133 -6 205 0
220 -1 233 -19 12 -16 12 -21 0 -34 -12 -11 -59 -16 -213 -21 -159 -5 -109 -7
257 -8 250 -1 671 -7 936 -14 371 -9 541 -9 745 1 363 16 727 58 756 87 12 12
12 14 -6 14 -14 0 -21 6 -21 20 0 22 10 26 26 10 10 -10 175 56 246 98 34 20
48 74 25 97 -9 8 -17 15 -19 14 -2 -1 -61 -18 -133 -39z"/>
</g>
</svg>
