<?xml version="1.0" standalone="no"?>
<!DOCTYPE svg PUBLIC "-//W3C//DTD SVG 20010904//EN"
 "http://www.w3.org/TR/2001/REC-SVG-20010904/DTD/svg10.dtd">
<svg version="1.0" xmlns="http://www.w3.org/2000/svg"
 width="500.000000pt" height="314.000000pt" viewBox="0 0 500.000000 314.000000"
 preserveAspectRatio="xMidYMid meet">
<metadata>
Created by potrace 1.16, written by Peter Selinger 2001-2019
</metadata>
<g transform="translate(0.000000,314.000000) scale(0.100000,-0.100000)"
fill="#000000" stroke="none">
<path d="M1035 2629 c-8 -23 -18 -24 -39 -4 -9 9 -17 11 -21 5 -3 -5 -16 -10
-28 -10 -35 0 -167 -92 -244 -169 -108 -108 -135 -188 -94 -275 11 -25 21 -48
21 -50 0 -9 93 -142 134 -191 74 -90 195 -212 246 -246 28 -19 50 -39 50 -45
0 -18 30 -40 38 -27 13 19 106 -12 98 -33 -2 -6 5 -16 15 -22 16 -10 21 -9 31
8 16 25 26 25 47 -1 15 -18 21 -20 39 -10 12 6 22 16 22 22 0 6 12 1 26 -10
20 -16 30 -18 45 -10 11 5 17 14 14 20 -6 8 11 13 43 12 6 -1 12 4 12 9 0 6
12 8 27 5 24 -4 59 14 47 25 -2 3 22 19 53 36 32 17 88 62 124 99 74 76 215
257 249 318 12 22 30 55 40 72 30 51 27 148 -6 184 -8 8 -14 20 -14 26 0 14
-142 156 -193 193 -75 54 -100 61 -159 49 -29 -6 -67 -17 -85 -25 -39 -18 -43
-18 -43 1 0 21 -10 19 -37 -7 -25 -24 -25 -24 -52 21 -6 11 -17 5 -45 -25 -26
-28 -36 -33 -32 -19 3 11 -2 29 -10 40 l-15 20 -15 -20 c-14 -18 -13 -22 7
-37 12 -11 16 -18 8 -18 -7 0 -30 17 -51 37 -41 40 -39 40 -67 -6 -7 -12 -14
-9 -34 14 -24 29 -24 29 -31 7 -4 -12 -13 -22 -19 -22 -16 0 -67 44 -67 58 0
20 -29 21 -35 1z"/>
<path d="M3190 2571 c-63 -20 -280 -196 -280 -228 0 -5 -8 -18 -19 -27 -38
-35 -43 -124 -9 -185 30 -54 61 -105 68 -111 3 -3 18 -25 35 -50 16 -25 86
-101 155 -170 69 -68 125 -128 125 -131 0 -4 4 -11 9 -16 5 -5 6 -3 2 5 -12
20 7 14 63 -23 29 -19 59 -35 67 -35 8 0 14 -4 14 -10 0 -5 7 -7 15 -4 8 4 15
2 15 -4 0 -6 8 -8 19 -5 12 3 24 -3 35 -18 15 -22 16 -22 35 -4 18 15 25 16
50 6 23 -10 33 -10 50 1 17 10 25 10 41 0 17 -10 24 -10 44 3 17 12 30 13 49
6 18 -7 30 -6 43 4 15 11 16 14 4 15 -8 0 7 11 33 26 29 15 57 23 70 20 12 -3
17 -3 10 0 -7 3 25 43 79 97 158 161 288 355 305 455 6 34 -12 106 -33 132
-37 47 -182 186 -214 205 -10 5 -30 19 -45 29 -15 11 -41 19 -58 19 -64 -1
-96 -6 -91 -15 3 -4 -8 -8 -25 -8 -16 0 -31 3 -34 8 -2 4 -3 2 -1 -4 1 -6 -21
-18 -49 -27 -45 -15 -51 -15 -62 -1 -10 14 -12 14 -24 0 -18 -21 -40 -20 -57
2 -13 16 -15 16 -28 0 -7 -10 -21 -18 -31 -18 -10 0 -24 8 -31 18 -13 16 -15
16 -28 0 -7 -10 -20 -18 -29 -18 -9 0 -21 8 -26 18 -8 13 -13 14 -19 5 -11
-18 -80 3 -103 30 -11 13 -18 17 -19 9 0 -8 -7 -11 -17 -8 -42 11 -80 14 -103
7z"/>
<path d="M458 2073 c-61 -67 -119 -284 -97 -365 6 -24 6 -52 -1 -80 -12 -55
-12 -78 0 -78 6 0 11 12 11 28 1 22 3 19 10 -13 13 -60 19 -254 8 -260 -5 -4
-10 11 -11 32 0 21 -4 -5 -8 -57 -4 -52 -17 -133 -29 -180 -12 -47 -25 -116
-29 -154 -8 -59 -7 -66 5 -50 7 10 13 20 13 23 0 3 10 49 21 101 12 52 21 116
20 142 -1 25 2 49 7 52 5 3 7 -6 4 -19 -4 -21 0 -25 19 -25 14 0 19 3 13 8
-17 11 -24 62 -8 62 16 0 28 -41 20 -67 -4 -13 2 -27 17 -41 23 -22 24 -22 42
-3 9 11 33 25 52 32 30 10 41 7 108 -25 310 -146 802 -153 1259 -15 137 41
174 46 208 28 25 -13 41 4 33 38 -4 17 -1 20 16 16 11 -3 25 -18 31 -32 6 -14
14 -33 18 -41 4 -8 13 -56 20 -105 7 -50 17 -94 21 -100 6 -5 9 -3 9 7 0 9 5
18 12 20 18 6 21 193 4 272 -7 36 -23 81 -35 101 -19 33 -21 47 -16 173 2 75
9 164 16 197 17 93 18 135 3 185 -18 57 -17 70 1 46 8 -11 15 -16 15 -10 -1
15 -26 44 -33 37 -4 -3 -11 5 -16 18 -5 13 -18 36 -28 51 -18 26 -18 26 -42 7
-13 -10 -29 -19 -36 -19 -7 0 -38 -29 -71 -64 -58 -65 -99 -145 -91 -177 3
-10 -2 -20 -10 -23 -9 -4 -13 -14 -10 -26 3 -11 2 -18 -2 -15 -11 6 -33 -44
-25 -57 4 -7 2 -8 -4 -4 -7 4 -12 1 -12 -8 0 -9 -4 -16 -10 -16 -5 0 -9 -4 -7
-8 3 -12 -52 -69 -99 -102 -22 -16 -68 -38 -101 -49 -75 -25 -280 -48 -295
-33 -7 7 -16 7 -28 0 -12 -8 -26 -8 -47 0 -22 7 -34 7 -42 -1 -7 -7 -11 -7
-11 -1 0 6 -7 11 -15 11 -8 0 -12 -4 -9 -9 3 -5 -5 -6 -18 -3 -12 2 -52 10
-88 16 -130 22 -156 28 -211 49 -59 23 -133 76 -124 90 2 4 -6 16 -20 26 -13
10 -22 21 -19 26 3 4 -2 18 -10 30 -8 13 -17 39 -21 58 -11 56 -119 274 -155
314 -18 20 -41 36 -51 36 -9 0 -19 5 -21 11 -2 6 -11 3 -20 -8z"/>
<path d="M4399 2030 c-34 -20 -179 -273 -179 -312 0 -20 -52 -98 -89 -132 -17
-17 -31 -36 -31 -43 0 -7 -6 -12 -12 -11 -7 2 -12 -3 -10 -10 1 -6 -1 -11 -5
-10 -5 1 -18 -3 -29 -10 -12 -6 -24 -8 -28 -5 -3 3 -6 1 -6 -5 0 -7 -11 -12
-24 -12 -14 0 -28 -4 -31 -10 -3 -5 -24 -10 -46 -10 -21 0 -39 -4 -39 -10 0
-5 -7 -6 -17 -3 -11 4 -14 3 -9 -5 5 -8 2 -10 -8 -6 -9 3 -16 1 -16 -4 0 -7
-11 -8 -32 -1 -35 10 -68 4 -68 -12 0 -6 -5 -7 -12 -2 -7 4 -84 8 -171 8 -90
1 -161 5 -165 10 -4 6 -18 10 -32 9 -31 0 -164 44 -168 57 -2 5 -7 7 -12 4 -4
-3 -31 17 -59 43 -28 27 -54 46 -58 43 -3 -3 -3 -1 0 5 4 6 -9 29 -29 50 -19
21 -57 82 -85 134 -28 52 -69 114 -90 138 -21 25 -39 48 -39 52 0 12 -117 10
-128 -3 -40 -51 -60 -187 -34 -233 11 -18 11 -17 13 6 1 17 4 13 9 -15 4 -22
5 -41 0 -43 -10 -4 15 -156 30 -179 10 -16 11 -16 6 0 -3 9 -2 17 2 17 10 0
50 -117 50 -149 1 -13 5 -27 10 -30 14 -10 46 -124 48 -174 2 -57 8 -66 32
-44 28 25 69 21 177 -18 53 -19 154 -47 223 -62 113 -24 150 -27 327 -27 285
-1 464 30 692 120 62 24 119 44 126 44 8 0 31 -11 51 -25 21 -14 41 -23 46
-20 5 3 7 32 4 64 -3 37 -1 62 5 66 6 3 11 18 12 33 0 16 10 -4 24 -51 13 -43
21 -85 18 -94 -4 -11 -3 -14 5 -9 7 4 12 2 12 -5 0 -9 3 -10 10 -3 6 6 6 23
-2 49 -6 22 -12 54 -14 70 -1 17 -8 63 -14 103 -10 62 -9 84 4 138 9 34 16 73
16 84 0 34 17 14 19 -22 1 -18 5 -49 10 -68 6 -22 7 21 4 120 -6 166 -18 229
-63 321 -48 98 -85 126 -131 99z"/>
<path d="M1460 394 c-8 -1 -132 -5 -275 -8 -143 -2 -269 -6 -280 -9 -11 -3
-67 -12 -125 -22 -107 -18 -255 -59 -278 -78 -9 -7 -10 -13 -2 -21 15 -15 12
-46 -5 -46 -27 0 -17 -39 11 -46 14 -4 392 -3 839 2 779 9 814 10 834 28 15
14 21 31 21 64 l0 44 -32 -6 c-82 -15 -154 -8 -268 27 -128 39 -198 53 -310
62 -41 3 -84 7 -95 9 -11 2 -27 2 -35 0z"/>
<path d="M3580 390 c-193 -13 -409 -53 -531 -99 -70 -27 -134 -35 -186 -23
-53 12 -67 -1 -57 -52 10 -57 25 -59 564 -57 810 1 1127 15 1127 47 0 8 -4 14
-8 14 -4 0 -9 19 -11 43 -3 39 -6 43 -43 55 -81 28 -276 62 -406 72 -147 11
-273 11 -449 0z"/>
</g>
</svg>
