<?xml version="1.0" standalone="no"?>
<!DOCTYPE svg PUBLIC "-//W3C//DTD SVG 20010904//EN"
 "http://www.w3.org/TR/2001/REC-SVG-20010904/DTD/svg10.dtd">
<svg version="1.0" xmlns="http://www.w3.org/2000/svg"
 width="500.000000pt" height="271.000000pt" viewBox="0 0 500.000000 271.000000"
 preserveAspectRatio="xMidYMid meet">
<metadata>
Created by potrace 1.16, written by Peter Selinger 2001-2019
</metadata>
<g transform="translate(0.000000,271.000000) scale(0.100000,-0.100000)"
fill="#000000" stroke="none">
<path d="M1262 2476 c-23 -35 -44 -70 -47 -79 -7 -16 -116 -52 -265 -88 -79
-19 -126 -23 -276 -25 -100 0 -186 -4 -192 -8 -7 -4 -11 -21 -10 -39 0 -18 -4
-63 -11 -102 -6 -38 -20 -131 -30 -205 -13 -87 -25 -138 -34 -145 -18 -13 -29
-75 -29 -158 0 -48 -4 -66 -19 -80 -15 -14 -19 -32 -19 -83 0 -36 -4 -74 -10
-84 -12 -22 -16 -447 -5 -542 8 -71 4 -67 85 -88 19 -5 166 -21 325 -35 343
-30 544 -51 633 -65 35 -6 66 -9 69 -7 7 8 -74 184 -107 233 -18 27 -56 73
-84 102 -28 29 -44 51 -36 48 41 -14 218 -66 223 -66 3 0 8 8 10 18 4 14 5 13
6 -4 1 -19 22 -27 202 -73 244 -64 340 -81 444 -81 108 0 152 14 202 64 108
108 42 275 -172 437 -28 21 -55 39 -59 39 -3 0 -5 -51 -4 -112 3 -127 -8 -155
-63 -178 -100 -42 -542 50 -1074 223 -143 46 -328 103 -412 127 l-151 43 1 31
c2 40 -5 41 269 -45 298 -94 474 -138 583 -146 138 -9 169 1 650 217 134 61
144 63 234 67 155 6 239 -27 347 -135 99 -100 167 -150 277 -207 l97 -50 0
-76 c0 -143 -54 -369 -122 -503 -16 -32 -27 -60 -25 -62 9 -9 380 -26 587 -26
231 0 536 21 695 48 196 33 528 130 654 192 70 35 84 56 70 107 -37 134 -141
236 -239 234 -34 -1 -33 -2 9 -10 94 -18 72 -49 -63 -92 -84 -27 -376 -80
-506 -92 -81 -8 -175 -31 -198 -49 -8 -6 -37 -31 -64 -56 -45 -40 -56 -45 -98
-45 -32 0 -55 6 -67 18 -11 9 -23 14 -28 10 -4 -5 -5 -3 -2 3 4 7 0 14 -8 18
-8 3 -15 13 -14 23 0 16 1 16 9 -2 7 -17 9 -16 9 11 1 16 7 39 15 49 8 11 12
25 9 31 -3 7 5 19 17 26 35 22 90 113 90 150 0 23 -3 29 -9 19 -7 -11 -10 -9
-13 10 -2 13 -18 33 -38 47 -29 19 -37 33 -48 80 -7 31 -11 61 -8 68 14 35
-108 120 -137 96 -20 -17 -127 17 -127 39 0 21 -28 31 -91 34 -48 2 -73 11
-64 25 7 11 -52 60 -73 61 -9 1 -34 0 -54 -1 -65 -3 -148 21 -165 47 -9 13
-13 26 -10 30 3 3 46 9 94 14 48 5 98 11 109 14 32 7 100 -16 294 -101 329
-143 381 -154 550 -114 117 28 339 96 433 132 60 23 77 33 73 46 -2 10 -7 52
-11 95 -4 42 -13 90 -20 105 -7 15 -16 59 -20 97 -15 170 -25 240 -34 243 -7
2 -7 12 0 29 5 13 7 29 3 34 -3 5 -47 9 -97 9 -118 0 -212 18 -420 78 -154 45
-170 52 -187 80 -28 45 -47 52 -105 36 -44 -11 -65 -10 -170 7 -66 11 -141 27
-166 35 -62 19 -92 18 -137 -5 -43 -22 -67 -47 -111 -118 -18 -29 -36 -53 -41
-53 -13 0 -49 -164 -47 -217 2 -43 -2 -56 -23 -78 -23 -25 -23 -27 -5 -23 18
3 20 -3 23 -69 l3 -71 -53 -11 c-29 -7 -72 -21 -96 -32 -24 -12 -54 -19 -68
-16 l-25 4 21 -22 22 -23 -24 -4 c-12 -2 -40 5 -60 15 -21 11 -71 24 -111 29
l-74 11 5 66 c6 85 -22 156 -81 206 l-41 35 22 23 c15 16 22 36 22 65 0 39 -5
47 -66 105 -36 34 -73 79 -81 100 -20 48 -65 85 -114 93 -21 4 -36 10 -34 14
3 5 -7 11 -23 15 -32 7 -140 -14 -259 -50 l-81 -25 -83 40 c-46 22 -88 40 -94
40 -6 0 -30 -29 -53 -64z"/>
<path d="M4130 1519 c-117 -34 -578 -180 -620 -196 -9 -3 13 -14 50 -25 36
-11 124 -37 195 -58 197 -60 469 -120 540 -120 5 0 -5 349 -12 398 -3 23 -8
42 -12 41 -3 0 -67 -18 -141 -40z"/>
<path d="M4737 655 c-9 -21 -107 -67 -237 -110 -63 -21 -203 -70 -310 -110
-352 -131 -440 -152 -735 -176 -163 -14 -912 -17 -1260 -7 -132 5 -350 10
-485 13 -379 8 -685 27 -1145 70 -143 14 -225 29 -277 50 -30 12 -22 -30 12
-64 46 -45 146 -70 375 -90 118 -11 661 -36 970 -46 105 -3 388 -13 630 -21
872 -32 1539 -3 1900 83 11 2 28 17 37 32 10 19 33 35 64 46 340 123 442 191
469 313 7 33 2 44 -8 17z"/>
</g>
</svg>
