<?xml version="1.0" encoding="UTF-8"?>
<svg xmlns="http://www.w3.org/2000/svg" xmlns:xlink="http://www.w3.org/1999/xlink" viewBox="0 0 96 96" width="96px" height="96px">
<g id="surface46964260">
<path style=" stroke:none;fill-rule:nonzero;fill:rgb(100%,100%,100%);fill-opacity:1;" d="M 18.71875 77.28125 L 18.71875 18.71875 L 77.28125 18.71875 L 77.28125 77.28125 Z M 18.71875 77.28125 "/>
<path style=" stroke:none;fill-rule:nonzero;fill:rgb(83.92157%,89.803922%,89.803922%);fill-opacity:1;" d="M 16.195312 25.816406 C 16.210938 24.097656 16.585938 22.847656 17.238281 21.488281 C 17.640625 20.65625 18.082031 19.820312 18.742188 19.171875 C 19.183594 18.738281 19.703125 18.402344 20.21875 18.066406 C 21.800781 17.042969 23.574219 15.976562 25.433594 16.261719 C 31.566406 17.207031 37.863281 16.554688 44.042969 16.035156 C 50.851562 15.464844 57.828125 15.933594 64.71875 15.898438 C 68.742188 15.875 73.105469 15.964844 76.273438 18.441406 C 78.910156 20.496094 80.207031 23.878906 80.5625 27.203125 C 80.917969 30.523438 79.992188 33.863281 80.1875 37.199219 C 80.691406 45.972656 80.195312 54.382812 80.570312 62.972656 C 80.699219 65.851562 80.789062 68.78125 80.082031 71.578125 C 79.375 74.371094 77.765625 77.066406 75.234375 78.441406 C 72.980469 79.664062 70.253906 80.25 67.738281 79.757812 C 64.175781 79.058594 60.484375 79.847656 56.855469 79.890625 C 55.90625 79.898438 54.957031 79.914062 54.007812 79.925781 C 49.019531 79.984375 44.46875 79.621094 39.480469 79.460938 C 35.738281 79.339844 31.730469 79.890625 27.75 79.890625 C 25.09375 79.890625 22.382812 79.453125 19.953125 78.101562 C 18.148438 77.09375 16.992188 75.175781 16.457031 73.179688 C 15.921875 71.183594 15.742188 69.078125 15.933594 67.019531 C 17.285156 52.261719 16.167969 25.394531 16.195312 25.816406 Z M 16.195312 25.816406 "/>
<path style=" stroke:none;fill-rule:nonzero;fill:rgb(83.92157%,89.803922%,89.803922%);fill-opacity:1;" d="M 37.257812 32.921875 C 37.5 32.933594 37.765625 32.949219 37.945312 33.117188 C 38.144531 33.300781 38.164062 33.609375 38.167969 33.886719 C 38.269531 40.933594 38.222656 47.980469 38.015625 55.027344 C 38.007812 55.242188 38.015625 55.488281 38.167969 55.636719 C 38.296875 55.761719 38.488281 55.78125 38.667969 55.792969 C 42.453125 56.078125 44.835938 55.8125 48.617188 55.527344 C 48.808594 55.511719 49.011719 55.5 49.171875 55.601562 C 49.429688 55.765625 49.445312 56.132812 49.421875 56.4375 C 49.332031 57.589844 49.078125 58.726562 48.679688 59.808594 C 48.578125 60.078125 48.460938 60.355469 48.246094 60.546875 C 47.9375 60.820312 47.5 60.867188 47.089844 60.894531 C 41.707031 61.28125 37.707031 61.382812 32.355469 60.675781 C 31.160156 58.417969 31.859375 56.730469 31.554688 54.195312 C 31.464844 53.476562 31.820312 51.703125 31.742188 50.984375 C 31.535156 49.074219 31.578125 47.242188 31.605469 45.320312 C 31.632812 43.164062 31.457031 41.003906 31.625 38.855469 C 31.753906 37.160156 31.894531 35.796875 32.074219 33.820312 C 32.199219 32.414062 32.542969 32.734375 33.679688 32.78125 C 34.871094 32.832031 36.0625 32.875 37.257812 32.921875 Z M 37.257812 32.921875 "/>
<path style="fill:none;stroke-width:1;stroke-linecap:butt;stroke-linejoin:miter;stroke:rgb(0.392157%,0.392157%,0.392157%);stroke-opacity:1;stroke-miterlimit:10;" d="M 29.016602 46.254395 C 29.044596 43.174967 29.716471 40.935384 30.885254 38.499837 C 31.60612 37.009115 32.396973 35.511393 33.579753 34.349609 C 34.370605 33.572754 35.301432 32.970866 36.22526 32.368978 C 39.059733 30.535319 42.237142 28.624674 45.568522 29.135579 C 56.556478 30.829264 67.838379 29.660482 78.910319 28.729655 C 91.109049 27.707845 103.608724 28.547689 115.954427 28.484701 C 123.163086 28.442708 130.980632 28.603678 136.656576 33.040853 C 141.380697 36.722168 143.704264 42.78304 144.341146 48.738932 C 144.978027 54.687826 143.319336 60.671712 143.669271 66.6486 C 144.572103 82.367676 143.683268 97.435872 144.355143 112.826009 C 144.5861 117.984049 144.74707 123.233073 143.480306 128.244141 C 142.213542 133.24821 139.330078 138.077311 134.794922 140.540853 C 130.756673 142.731445 125.871582 143.78125 121.364421 142.899414 C 114.981608 141.646647 108.367839 143.060384 101.866048 143.13737 C 100.165365 143.151367 98.464681 143.179362 96.763997 143.200358 C 87.82666 143.305339 79.673177 142.65446 70.73584 142.367513 C 64.031087 142.150553 56.850423 143.13737 49.71875 143.13737 C 44.959635 143.13737 40.102539 142.353516 35.749349 139.931966 C 32.515951 138.126302 30.444336 134.689941 29.485514 131.113607 C 28.526693 127.537272 28.204753 123.764974 28.547689 120.07666 C 30.969238 93.635579 28.967611 45.498535 29.016602 46.254395 Z M 29.016602 46.254395 " transform="matrix(0.55814,0,0,0.55814,0,0)"/>
<path style=" stroke:none;fill-rule:evenodd;fill:rgb(21.568628%,21.960784%,21.568628%);fill-opacity:1;" d="M 32.027344 40.902344 C 29.222656 44.195312 26.503906 48.171875 26.503906 51.332031 C 26.503906 53.15625 28.042969 55.722656 31.789062 55.722656 C 33.816406 55.722656 35.832031 54.90625 37.40625 54.277344 C 40.0625 53.214844 69.417969 40.46875 69.417969 40.46875 C 69.703125 40.324219 69.648438 40.148438 69.292969 40.238281 C 69.148438 40.273438 37.335938 48.894531 37.335938 48.894531 C 36.722656 49.066406 36.09375 49.160156 35.484375 49.160156 C 32.734375 49.160156 30.882812 47.839844 30.882812 44.957031 C 30.882812 43.839844 31.230469 42.488281 32.027344 40.902344 Z M 32.027344 40.902344 "/>
<path style="fill:none;stroke-width:1;stroke-linecap:butt;stroke-linejoin:round;stroke:rgb(0.392157%,0.392157%,0.392157%);stroke-opacity:1;stroke-miterlimit:10;" d="M 57.40332 73.304362 C 52.378255 79.204264 47.822103 86.307943 47.822103 91.969889 C 47.822103 95.238281 50.243652 100.193359 56.955404 100.193359 C 60.587728 100.193359 64.094076 98.079753 66.914551 96.945964 C 78.840332 92.788737 95.770182 85.062174 124.219889 72.156576 C 124.730794 71.897624 124.709798 71.610677 124.072917 71.771647 C 123.813965 71.834635 95.574219 80.009115 66.942546 87.777669 C 65.84375 88.085612 64.674967 87.707682 63.576172 87.707682 C 58.649089 87.707682 55.226725 85.713053 55.226725 80.541016 C 55.219727 78.539388 56.080566 76.187826 57.508301 73.339355 C 57.508301 73.332357 57.40332 73.304362 57.40332 73.304362 Z M 57.40332 73.304362 " transform="matrix(0.55814,0,0,0.55814,0,0)"/>
</g>
</svg>
