<?xml version="1.0" standalone="no"?>
<!DOCTYPE svg PUBLIC "-//W3C//DTD SVG 20010904//EN"
 "http://www.w3.org/TR/2001/REC-SVG-20010904/DTD/svg10.dtd">
<svg version="1.0" xmlns="http://www.w3.org/2000/svg"
 width="500.000000pt" height="332.000000pt" viewBox="0 0 500.000000 332.000000"
 preserveAspectRatio="xMidYMid meet">
<metadata>
Created by potrace 1.16, written by Peter Selinger 2001-2019
</metadata>
<g transform="translate(0.000000,332.000000) scale(0.100000,-0.100000)"
fill="#000000" stroke="none">
<path d="M775 659 c28 -5 65 -12 84 -15 l35 -6 -33 -15 c-92 -45 75 -60 504
-44 187 7 369 16 405 20 l65 7 -45 7 c-25 3 -135 8 -245 11 -110 3 -290 12
-400 20 -275 20 -435 27 -370 15z"/>
<path d="M2068 538 c-16 -5 -28 -16 -28 -23 0 -12 12 -17 80 -30 241 -47 839
-36 1390 25 96 11 179 20 183 20 5 0 6 4 3 8 -3 5 -38 3 -78 -4 -155 -26 -573
-55 -768 -53 -149 2 -468 29 -627 53 -116 18 -118 18 -155 4z"/>
</g>
</svg>
