<?xml version="1.0" standalone="no"?>
<!DOCTYPE svg PUBLIC "-//W3C//DTD SVG 20010904//EN"
 "http://www.w3.org/TR/2001/REC-SVG-20010904/DTD/svg10.dtd">
<svg version="1.0" xmlns="http://www.w3.org/2000/svg"
 width="500.000000pt" height="332.000000pt" viewBox="0 0 500.000000 332.000000"
 preserveAspectRatio="xMidYMid meet">
<metadata>
Created by potrace 1.16, written by Peter Selinger 2001-2019
</metadata>
<g transform="translate(0.000000,332.000000) scale(0.100000,-0.100000)"
fill="#000000" stroke="none">
<path d="M3058 2540 c-53 -29 -50 -50 7 -51 25 -1 51 -2 58 -3 6 -1 15 3 19 9
5 6 8 5 8 -3 0 -9 7 -11 20 -7 15 5 18 3 14 -9 -4 -11 0 -13 16 -9 14 4 20 1
18 -8 -2 -8 3 -13 10 -11 6 1 12 -2 12 -6 0 -5 17 -17 37 -28 46 -23 70 -44
52 -44 -7 0 -9 -3 -5 -7 11 -11 35 25 29 45 -5 21 -100 75 -115 66 -6 -4 -8
-3 -5 3 4 6 -7 16 -23 23 -17 7 -29 15 -26 17 9 9 150 -70 177 -100 16 -17 29
-26 29 -19 0 18 17 15 24 -4 9 -23 1 -28 -24 -14 -18 10 -24 9 -31 -1 -11 -18
-4 -25 31 -38 18 -6 28 -6 25 -1 -4 6 -1 10 4 10 6 0 11 -4 11 -10 0 -5 7 -10
16 -10 14 0 14 2 -1 17 -15 15 -15 17 -1 25 21 12 11 29 -11 21 -9 -4 -14 -2
-10 3 7 13 -253 154 -295 160 -21 3 -46 -3 -70 -16z"/>
<path d="M2910 2212 c0 -4 11 -23 25 -42 30 -41 31 -48 6 -52 -19 -3 -19 -3 0
-27 15 -18 22 -21 33 -12 11 9 16 9 23 -2 4 -8 25 -22 46 -32 21 -10 52 -31
70 -48 18 -17 35 -30 40 -29 4 1 7 -5 7 -13 0 -13 2 -14 14 -3 8 7 12 15 11
19 -2 3 -49 36 -105 74 -56 38 -104 74 -108 79 -3 6 2 5 11 -2 9 -8 20 -11 26
-8 5 3 12 0 15 -6 3 -10 8 -9 15 4 11 16 51 14 51 -3 0 -5 6 -9 14 -9 8 0 16
-5 18 -12 6 -17 38 -2 38 18 0 10 -3 15 -6 11 -4 -3 -19 0 -33 8 -24 12 -27
19 -24 52 4 34 3 36 -10 21 -17 -22 -78 -19 -125 6 -34 18 -52 20 -52 8z"/>
<path d="M1518 634 c-5 -4 -8 -18 -8 -31 0 -22 -3 -23 -55 -20 -30 2 -58 6
-61 10 -3 3 -12 3 -20 0 -8 -3 -14 1 -14 8 0 11 -3 11 -11 -1 -7 -11 -12 -12
-15 -3 -3 7 -12 9 -20 6 -8 -3 -14 0 -14 6 0 6 -6 8 -14 5 -8 -3 -23 -1 -34 5
-13 7 -22 7 -29 0 -6 -6 -58 -13 -114 -15 -119 -4 -189 -12 -208 -23 -24 -15
21 -23 189 -32 189 -9 1017 -21 983 -13 -18 4 -23 13 -23 35 0 38 -16 37 -24
-2 -6 -29 -7 -30 -58 -27 -49 3 -53 5 -56 31 -4 34 -22 36 -22 2 0 -24 -3 -25
-55 -25 l-55 0 0 37 c0 40 -16 35 -22 -7 -1 -14 -9 -25 -15 -24 -7 1 -31 2
-53 3 -37 1 -40 3 -40 31 0 17 -4 30 -10 30 -5 0 -10 -14 -10 -30 0 -30 -1
-31 -37 -25 -59 10 -61 12 -65 45 -2 18 -6 28 -10 24z"/>
<path d="M4420 621 c0 -43 -62 -50 -75 -8 -7 21 -7 21 -14 -3 -5 -20 -14 -26
-44 -28 -21 -2 -37 1 -37 7 0 6 4 11 8 11 20 0 6 26 -15 28 -19 1 -23 -3 -23
-27 l0 -28 -88 -7 c-95 -8 -124 -2 -120 22 2 9 -4 18 -13 20 -13 2 -15 -3 -12
-23 5 -25 4 -25 -56 -25 -58 0 -61 1 -61 25 0 16 -6 25 -15 25 -9 0 -15 -9
-15 -25 0 -21 -5 -25 -29 -25 -16 0 -43 -3 -60 -6 -28 -6 -31 -4 -31 20 0 16
-5 26 -15 26 -9 0 -15 -9 -15 -25 0 -25 -2 -26 -60 -24 -56 2 -60 4 -60 25 0
15 -6 24 -16 24 -12 0 -15 -7 -12 -25 5 -25 4 -25 -58 -25 -62 0 -64 1 -64 25
0 14 -4 25 -10 25 -5 0 -10 -11 -10 -25 0 -24 -3 -25 -59 -25 -54 0 -60 2 -63
22 -5 32 -28 35 -28 3 0 -26 -1 -27 -55 -23 -34 2 -54 -1 -52 -7 2 -6 57 -9
143 -8 76 2 299 5 494 9 391 6 635 18 692 34 21 6 43 20 49 31 9 19 9 19 -10
10 -11 -6 -23 -16 -26 -21 -3 -6 -12 -10 -18 -10 -8 0 -7 3 2 9 18 12 5 32
-16 24 -11 -4 -14 -3 -9 5 4 7 1 12 -8 12 -9 0 -16 -8 -16 -19z"/>
</g>
</svg>
